<?xml version="1.0" encoding="utf-8"?>
<!-- Generator: Adobe Illustrator 22.1.0, SVG Export Plug-In . SVG Version: 6.00 Build 0)  -->
<svg version="1.1" id="Layer_1" xmlns="http://www.w3.org/2000/svg" xmlns:xlink="http://www.w3.org/1999/xlink" x="0px" y="0px"
	 viewBox="0 0 67.7 84.3" style="enable-background:new 0 0 67.7 84.3;" xml:space="preserve">
<style type="text/css">
	.st0{fill:#FAA435;}
</style>
<title>Magdaleno_F-iconsfromcanvas</title>
<path class="st0" d="M33,55.5c0,6.2-5,11.2-11.2,11.1c-0.1,0-0.2,0-0.2,0c-6.2,0.1-11.3-4.8-11.4-10.9c0-0.1,0-0.1,0-0.2
	c0-6.3,5.1-11.4,11.4-11.4S33,49.2,33,55.5L33,55.5L33,55.5z"/>
<path class="st0" d="M38.3,69.1c-2.8,3-3.9,3.1-4.7,5c-0.6,1.5,0,4.2,0.3,7.2c0,0.1,0,0.4,0,0.5c0,0.3,0.1,0.6-0.1,0.8
	c-4.5,3-20.1,1.7-26-0.1c0,0-0.1,0-0.1-0.1c-0.1-0.1,0-0.8,0.2-1.8c0.4-1.9,0.6-3.8,0.6-5.8c-0.1-3.1-2.9-4.5-5.9-9.6
	C0.4,61.5-0.5,57.2,0,53c1.2-7.8,8.6-7.4,10.9-6.7s1.5,0.8,1.5,0.8C12,47,8.9,51,9,54.6v0.2c0,0-0.2,0-0.3,0.6
	C8.3,59.5,11.3,67.2,21,68.1c3.3,0,6.6-1.1,9.2-3.1c2.8-2.3,4.8-5.3,5.8-8.8l0,0c0,0,0,0,0-0.1c0.4-1.3,0.9-5.5,1.7-7.5
	c0-0.1,1.5-2.8,3.6-2.7c1.8,0.3,3.2,1.8,3.4,3.6c0.1,0.7,0.1,1.5,0.1,2.2c0,1.5-0.2,3-0.5,4.4C43.5,60.9,41.4,65.4,38.3,69.1z"/>
<circle class="st0" cx="45.1" cy="22.7" r="10.5"/>
<rect x="46.2" y="5.6" transform="matrix(0.3825 -0.9239 0.9239 0.3825 25.5602 51.9011)" class="st0" width="10.9" height="2.4"/>
<rect x="53.7" y="11.8" transform="matrix(0.7932 -0.6089 0.6089 0.7932 4.2998 38.6968)" class="st0" width="10.9" height="2.4"/>
<rect x="56.7" y="19.8" transform="matrix(0.9915 -0.1302 0.1302 0.9915 -2.2055 8.2702)" class="st0" width="10.9" height="2.4"/>
<rect x="26.3" y="32.8" transform="matrix(0.7932 -0.6089 0.6089 0.7932 -14.158 26.369)" class="st0" width="10.9" height="2.4"/>
<rect x="22.3" y="24.5" transform="matrix(0.9915 -0.1302 0.1302 0.9915 -3.1101 3.8314)" class="st0" width="10.9" height="2.4"/>
<rect x="32.9" y="37.8" transform="matrix(0.3825 -0.9239 0.9239 0.3825 -12.3461 59.5237)" class="st0" width="10.9" height="2.4"/>
<rect x="41.4" y="0.1" transform="matrix(0.9915 -0.1304 0.1304 0.9915 -0.359 5.6021)" class="st0" width="2.4" height="10.9"/>
<rect x="47" y="34" transform="matrix(0.9915 -0.1304 0.1304 0.9915 -4.7326 6.6224)" class="st0" width="2.4" height="10.9"/>
<rect x="32.9" y="4.2" transform="matrix(0.6757 -0.7372 0.7372 0.6757 3.9397 28.2878)" class="st0" width="2.4" height="10.9"/>
<rect x="55.4" y="30.4" transform="matrix(0.6685 -0.7437 0.7437 0.6685 -7.8973 54.0169)" class="st0" width="2.4" height="10.9"/>
<rect x="59.5" y="24.7" transform="matrix(0.3828 -0.9238 0.9238 0.3828 9.6102 74.7054)" class="st0" width="2.4" height="10.9"/>
<rect x="27.9" y="10.6" transform="matrix(0.3828 -0.9238 0.9238 0.3828 3.152 36.7733)" class="st0" width="2.4" height="10.9"/>
</svg>
